<mxfile host="Electron" agent="Mozilla/5.0 (Windows NT 10.0; Win64; x64) AppleWebKit/537.36 (KHTML, like Gecko) draw.io/25.0.1 Chrome/128.0.6613.186 Electron/32.2.6 Safari/537.36" version="25.0.1">
  <diagram name="Page-1" id="CtxlgCeLfSFnsBzgP8gn">
    <mxGraphModel dx="1747" dy="2315" grid="1" gridSize="8" guides="1" tooltips="1" connect="1" arrows="1" fold="1" page="0" pageScale="1" pageWidth="850" pageHeight="1100" math="0" shadow="0">
      <root>
        <mxCell id="0" />
        <mxCell id="1" parent="0" />
        <mxCell id="VI83ClhkM7oRZmtI1hbw-1" value="User and Fastag Creation" style="ellipse;whiteSpace=wrap;html=1;fontStyle=0;fontSize=14;" parent="1" vertex="1">
          <mxGeometry x="280" y="440" width="230" height="80" as="geometry" />
        </mxCell>
        <mxCell id="VI83ClhkM7oRZmtI1hbw-7" value="Vehicle&lt;div&gt;Creation&lt;/div&gt;" style="edgeStyle=orthogonalEdgeStyle;rounded=0;orthogonalLoop=1;jettySize=auto;html=1;exitX=0.75;exitY=0;exitDx=0;exitDy=0;fontStyle=0;fontSize=14;" parent="1" edge="1">
          <mxGeometry relative="1" as="geometry">
            <mxPoint x="433" y="736" as="sourcePoint" />
            <mxPoint x="432" y="520" as="targetPoint" />
          </mxGeometry>
        </mxCell>
        <mxCell id="VI83ClhkM7oRZmtI1hbw-8" value="Police&lt;div&gt;Man&lt;/div&gt;&lt;div&gt;Creation&lt;/div&gt;" style="edgeStyle=orthogonalEdgeStyle;rounded=0;orthogonalLoop=1;jettySize=auto;html=1;exitX=0.333;exitY=0;exitDx=0;exitDy=0;exitPerimeter=0;fontStyle=0;fontSize=14;" parent="1" source="VI83ClhkM7oRZmtI1hbw-2" edge="1">
          <mxGeometry relative="1" as="geometry">
            <mxPoint x="372" y="610" as="sourcePoint" />
            <mxPoint x="372" y="520" as="targetPoint" />
          </mxGeometry>
        </mxCell>
        <mxCell id="VI83ClhkM7oRZmtI1hbw-2" value="RTO" style="whiteSpace=wrap;html=1;fontStyle=0;fontSize=14;" parent="1" vertex="1">
          <mxGeometry x="328" y="736" width="120" height="60" as="geometry" />
        </mxCell>
        <mxCell id="VI83ClhkM7oRZmtI1hbw-4" value="Fastag" style="shape=partialRectangle;whiteSpace=wrap;html=1;left=0;right=0;fillColor=none;fontStyle=0;fontSize=14;" parent="1" vertex="1">
          <mxGeometry x="676" y="590" width="120" height="60" as="geometry" />
        </mxCell>
        <mxCell id="VI83ClhkM7oRZmtI1hbw-5" value="Vehicle" style="shape=partialRectangle;whiteSpace=wrap;html=1;left=0;right=0;fillColor=none;fontStyle=0;fontSize=14;" parent="1" vertex="1">
          <mxGeometry x="170" y="680" width="120" height="48" as="geometry" />
        </mxCell>
        <mxCell id="VI83ClhkM7oRZmtI1hbw-6" value="User" style="shape=partialRectangle;whiteSpace=wrap;html=1;left=0;right=0;fillColor=none;fontStyle=0;fontSize=14;" parent="1" vertex="1">
          <mxGeometry x="-16" y="530" width="144" height="60" as="geometry" />
        </mxCell>
        <mxCell id="VI83ClhkM7oRZmtI1hbw-10" value="Issue&amp;nbsp;&lt;div&gt;Fastag&lt;/div&gt;" style="endArrow=classic;html=1;rounded=0;exitX=1;exitY=0.25;exitDx=0;exitDy=0;fontStyle=0;fontSize=14;" parent="1" source="VI83ClhkM7oRZmtI1hbw-2" edge="1">
          <mxGeometry width="50" height="50" relative="1" as="geometry">
            <mxPoint x="448.79999999999995" y="707.5799999999999" as="sourcePoint" />
            <mxPoint x="480" y="509" as="targetPoint" />
            <Array as="points">
              <mxPoint x="488" y="751" />
            </Array>
          </mxGeometry>
        </mxCell>
        <mxCell id="VI83ClhkM7oRZmtI1hbw-11" value="Create User&amp;nbsp;&lt;div&gt;with their types&lt;/div&gt;" style="endArrow=classic;html=1;rounded=0;exitX=0;exitY=0.5;exitDx=0;exitDy=0;entryX=0.25;entryY=0;entryDx=0;entryDy=0;fontStyle=0;fontSize=14;" parent="1" target="VI83ClhkM7oRZmtI1hbw-6" edge="1">
          <mxGeometry x="-0.3753" y="-2" width="50" height="50" relative="1" as="geometry">
            <mxPoint x="280" y="469.9999999999998" as="sourcePoint" />
            <mxPoint x="63.59999999999991" y="519.9999999999999" as="targetPoint" />
            <Array as="points">
              <mxPoint x="16" y="467" />
            </Array>
            <mxPoint as="offset" />
          </mxGeometry>
        </mxCell>
        <mxCell id="VI83ClhkM7oRZmtI1hbw-12" value="Add Vehicle Entry" style="endArrow=classic;html=1;rounded=0;exitX=0.031;exitY=0.698;exitDx=0;exitDy=0;exitPerimeter=0;entryX=0.357;entryY=-0.017;entryDx=0;entryDy=0;entryPerimeter=0;fontStyle=0;fontSize=14;" parent="1" source="VI83ClhkM7oRZmtI1hbw-1" target="VI83ClhkM7oRZmtI1hbw-5" edge="1">
          <mxGeometry width="50" height="50" relative="1" as="geometry">
            <mxPoint x="350" y="510" as="sourcePoint" />
            <mxPoint x="400" y="460" as="targetPoint" />
            <Array as="points">
              <mxPoint x="213" y="496" />
            </Array>
          </mxGeometry>
        </mxCell>
        <mxCell id="VI83ClhkM7oRZmtI1hbw-13" value="&lt;div&gt;Toll Plaza&amp;nbsp;&lt;/div&gt;&lt;div&gt;Man&lt;/div&gt;&lt;div&gt;Creation&lt;/div&gt;" style="endArrow=classic;html=1;rounded=0;exitX=0;exitY=0;exitDx=0;exitDy=0;entryX=0.223;entryY=0.928;entryDx=0;entryDy=0;entryPerimeter=0;fontStyle=0;fontSize=14;" parent="1" source="VI83ClhkM7oRZmtI1hbw-2" target="VI83ClhkM7oRZmtI1hbw-1" edge="1">
          <mxGeometry x="0.5409" width="50" height="50" relative="1" as="geometry">
            <mxPoint x="350" y="510" as="sourcePoint" />
            <mxPoint x="400" y="460" as="targetPoint" />
            <mxPoint as="offset" />
          </mxGeometry>
        </mxCell>
        <mxCell id="VI83ClhkM7oRZmtI1hbw-14" value="" style="endArrow=classic;html=1;rounded=0;entryX=0.5;entryY=1;entryDx=0;entryDy=0;exitX=0.99;exitY=0.87;exitDx=0;exitDy=0;exitPerimeter=0;fontStyle=0;fontSize=14;" parent="1" source="VI83ClhkM7oRZmtI1hbw-2" target="VI83ClhkM7oRZmtI1hbw-4" edge="1">
          <mxGeometry width="50" height="50" relative="1" as="geometry">
            <mxPoint x="350" y="510" as="sourcePoint" />
            <mxPoint x="400" y="460" as="targetPoint" />
            <Array as="points">
              <mxPoint x="736" y="792" />
            </Array>
          </mxGeometry>
        </mxCell>
        <mxCell id="VI83ClhkM7oRZmtI1hbw-15" value="Add Fastag&amp;nbsp;&lt;div&gt;Entry&lt;/div&gt;" style="edgeLabel;html=1;align=center;verticalAlign=middle;resizable=0;points=[];fontStyle=0;fontSize=14;" parent="VI83ClhkM7oRZmtI1hbw-14" vertex="1" connectable="0">
          <mxGeometry x="-0.288" y="-1" relative="1" as="geometry">
            <mxPoint as="offset" />
          </mxGeometry>
        </mxCell>
        <mxCell id="VI83ClhkM7oRZmtI1hbw-16" value="Associate&amp;nbsp;&lt;div&gt;Fastag&amp;nbsp;&lt;/div&gt;&lt;div&gt;to Vehicle&lt;/div&gt;" style="endArrow=classic;html=1;rounded=0;exitX=0.583;exitY=1.03;exitDx=0;exitDy=0;exitPerimeter=0;fontStyle=0;fontSize=14;entryX=0.5;entryY=1;entryDx=0;entryDy=0;" parent="1" source="VI83ClhkM7oRZmtI1hbw-2" target="VI83ClhkM7oRZmtI1hbw-5" edge="1">
          <mxGeometry width="50" height="50" relative="1" as="geometry">
            <mxPoint x="350" y="510" as="sourcePoint" />
            <mxPoint x="240" y="681" as="targetPoint" />
            <Array as="points">
              <mxPoint x="398" y="832" />
              <mxPoint x="230" y="832" />
            </Array>
          </mxGeometry>
        </mxCell>
        <mxCell id="VI83ClhkM7oRZmtI1hbw-17" value="Challan Management" style="ellipse;whiteSpace=wrap;html=1;fontStyle=0;fontSize=14;" parent="1" vertex="1">
          <mxGeometry x="296" y="-104" width="230" height="80" as="geometry" />
        </mxCell>
        <mxCell id="VI83ClhkM7oRZmtI1hbw-18" value="Police Man Creation" style="rounded=0;whiteSpace=wrap;html=1;fontStyle=0;fontSize=14;" parent="1" vertex="1">
          <mxGeometry x="280" y="-296" width="256" height="60" as="geometry" />
        </mxCell>
        <mxCell id="VI83ClhkM7oRZmtI1hbw-19" value="Create&amp;nbsp;&lt;div&gt;Challan&lt;/div&gt;" style="endArrow=classic;html=1;rounded=0;exitX=0.593;exitY=1.038;exitDx=0;exitDy=0;exitPerimeter=0;entryX=0.591;entryY=0.037;entryDx=0;entryDy=0;entryPerimeter=0;fontStyle=0;fontSize=14;" parent="1" source="VI83ClhkM7oRZmtI1hbw-18" target="VI83ClhkM7oRZmtI1hbw-17" edge="1">
          <mxGeometry width="50" height="50" relative="1" as="geometry">
            <mxPoint x="304" y="-198" as="sourcePoint" />
            <mxPoint x="354" y="-248" as="targetPoint" />
          </mxGeometry>
        </mxCell>
        <mxCell id="VI83ClhkM7oRZmtI1hbw-20" value="Challan Table" style="shape=partialRectangle;whiteSpace=wrap;html=1;left=0;right=0;fillColor=none;fontStyle=0;fontSize=14;" parent="1" vertex="1">
          <mxGeometry x="704" y="-280" width="192" height="60" as="geometry" />
        </mxCell>
        <mxCell id="VI83ClhkM7oRZmtI1hbw-22" value="Add Challan to a&amp;nbsp;&lt;div&gt;Vehicle&lt;/div&gt;" style="endArrow=classic;html=1;rounded=0;entryX=0.446;entryY=0.975;entryDx=0;entryDy=0;entryPerimeter=0;fontStyle=0;fontSize=14;" parent="1" target="VI83ClhkM7oRZmtI1hbw-20" edge="1">
          <mxGeometry x="-0.1233" width="50" height="50" relative="1" as="geometry">
            <mxPoint x="527" y="-64" as="sourcePoint" />
            <mxPoint x="754.6800000000001" y="-216.76" as="targetPoint" />
            <Array as="points">
              <mxPoint x="790" y="-64" />
            </Array>
            <mxPoint as="offset" />
          </mxGeometry>
        </mxCell>
        <mxCell id="VI83ClhkM7oRZmtI1hbw-23" value="View Challans of a&lt;div&gt;Vehicle&lt;/div&gt;" style="endArrow=classic;html=1;rounded=0;exitX=0.75;exitY=1;exitDx=0;exitDy=0;entryX=0.754;entryY=1.002;entryDx=0;entryDy=0;entryPerimeter=0;fontStyle=0;fontSize=14;" parent="1" source="VI83ClhkM7oRZmtI1hbw-20" target="VI83ClhkM7oRZmtI1hbw-17" edge="1">
          <mxGeometry width="50" height="50" relative="1" as="geometry">
            <mxPoint x="304" y="-198" as="sourcePoint" />
            <mxPoint x="354" y="-248" as="targetPoint" />
            <Array as="points">
              <mxPoint x="848" />
              <mxPoint x="469" />
            </Array>
          </mxGeometry>
        </mxCell>
        <mxCell id="VI83ClhkM7oRZmtI1hbw-24" value="View&lt;div&gt;Challan&lt;/div&gt;&lt;div&gt;of a&amp;nbsp;&lt;/div&gt;&lt;div&gt;vehicle&lt;/div&gt;" style="endArrow=classic;html=1;rounded=0;exitX=0.415;exitY=-0.021;exitDx=0;exitDy=0;exitPerimeter=0;entryX=0.431;entryY=0.991;entryDx=0;entryDy=0;entryPerimeter=0;fontStyle=0;fontSize=14;" parent="1" edge="1">
          <mxGeometry width="50" height="50" relative="1" as="geometry">
            <mxPoint x="371.4500000000003" y="-105.68000000000006" as="sourcePoint" />
            <mxPoint x="370.3359999999998" y="-236.53999999999996" as="targetPoint" />
          </mxGeometry>
        </mxCell>
        <mxCell id="VI83ClhkM7oRZmtI1hbw-25" value="User Management" style="ellipse;whiteSpace=wrap;html=1;fontStyle=0;fontSize=14;" parent="1" vertex="1">
          <mxGeometry x="-200" y="48" width="264" height="80" as="geometry" />
        </mxCell>
        <mxCell id="VI83ClhkM7oRZmtI1hbw-26" value="Vehicle Owner" style="rounded=0;whiteSpace=wrap;html=1;fontStyle=0;fontSize=14;" parent="1" vertex="1">
          <mxGeometry x="-576" y="58" width="120" height="60" as="geometry" />
        </mxCell>
        <mxCell id="VI83ClhkM7oRZmtI1hbw-27" value="View Challans of a Individual" style="endArrow=classic;html=1;rounded=0;exitX=0.5;exitY=0;exitDx=0;exitDy=0;entryX=0.425;entryY=-0.015;entryDx=0;entryDy=0;entryPerimeter=0;fontStyle=0;fontSize=14;" parent="1" source="VI83ClhkM7oRZmtI1hbw-20" target="VI83ClhkM7oRZmtI1hbw-25" edge="1">
          <mxGeometry width="50" height="50" relative="1" as="geometry">
            <mxPoint x="768" y="-344" as="sourcePoint" />
            <mxPoint x="386" y="-216" as="targetPoint" />
            <Array as="points">
              <mxPoint x="800" y="-368" />
              <mxPoint x="-88" y="-368" />
            </Array>
          </mxGeometry>
        </mxCell>
        <mxCell id="VI83ClhkM7oRZmtI1hbw-28" value="View it&#39;s Challans" style="endArrow=classic;html=1;rounded=0;exitX=0;exitY=0.5;exitDx=0;exitDy=0;entryX=1;entryY=0.5;entryDx=0;entryDy=0;fontStyle=0;fontSize=14;" parent="1" source="VI83ClhkM7oRZmtI1hbw-25" target="VI83ClhkM7oRZmtI1hbw-26" edge="1">
          <mxGeometry width="50" height="50" relative="1" as="geometry">
            <mxPoint x="-112" y="-78" as="sourcePoint" />
            <mxPoint x="-62" y="-128" as="targetPoint" />
          </mxGeometry>
        </mxCell>
        <mxCell id="VI83ClhkM7oRZmtI1hbw-29" value="Pay Challans/passage&amp;nbsp;" style="endArrow=classic;html=1;rounded=0;exitX=0.846;exitY=1.036;exitDx=0;exitDy=0;entryX=0.215;entryY=0.938;entryDx=0;entryDy=0;entryPerimeter=0;exitPerimeter=0;fontStyle=0;fontSize=14;" parent="1" source="VI83ClhkM7oRZmtI1hbw-26" target="VI83ClhkM7oRZmtI1hbw-25" edge="1">
          <mxGeometry width="50" height="50" relative="1" as="geometry">
            <mxPoint x="-8" y="-46" as="sourcePoint" />
            <mxPoint x="42" y="-96" as="targetPoint" />
            <Array as="points">
              <mxPoint x="-474" y="144" />
              <mxPoint x="-143" y="144" />
            </Array>
          </mxGeometry>
        </mxCell>
        <mxCell id="VI83ClhkM7oRZmtI1hbw-30" value="Recharge&amp;nbsp;&lt;div&gt;Fastag&lt;/div&gt;" style="endArrow=classic;html=1;rounded=0;entryX=0.455;entryY=1;entryDx=0;entryDy=0;entryPerimeter=0;fontStyle=0;fontSize=14;" parent="1" target="VI83ClhkM7oRZmtI1hbw-25" edge="1">
          <mxGeometry x="-0.0013" width="50" height="50" relative="1" as="geometry">
            <mxPoint x="-512" y="120" as="sourcePoint" />
            <mxPoint x="-46" as="targetPoint" />
            <Array as="points">
              <mxPoint x="-512" y="192" />
              <mxPoint x="-80" y="192" />
            </Array>
            <mxPoint as="offset" />
          </mxGeometry>
        </mxCell>
        <mxCell id="VI83ClhkM7oRZmtI1hbw-31" value="&lt;u&gt;Update &lt;/u&gt;balance after recharge" style="endArrow=classic;html=1;rounded=0;exitX=0.582;exitY=0.985;exitDx=0;exitDy=0;exitPerimeter=0;entryX=0.5;entryY=0;entryDx=0;entryDy=0;fontStyle=0;fontSize=14;" parent="1" source="VI83ClhkM7oRZmtI1hbw-25" target="VI83ClhkM7oRZmtI1hbw-4" edge="1">
          <mxGeometry width="50" height="50" relative="1" as="geometry">
            <mxPoint x="176" y="450" as="sourcePoint" />
            <mxPoint x="226" y="400" as="targetPoint" />
            <Array as="points">
              <mxPoint x="-48" y="424" />
              <mxPoint x="736" y="432" />
            </Array>
          </mxGeometry>
        </mxCell>
        <mxCell id="VI83ClhkM7oRZmtI1hbw-32" value="Transactions" style="shape=partialRectangle;whiteSpace=wrap;html=1;left=0;right=0;fillColor=none;fontStyle=0;fontSize=14;" parent="1" vertex="1">
          <mxGeometry x="944" y="576" width="120" height="60" as="geometry" />
        </mxCell>
        <mxCell id="VI83ClhkM7oRZmtI1hbw-33" value="&lt;u&gt;Add transaction with type recharge or challan payment or passage&lt;/u&gt;" style="endArrow=classic;html=1;rounded=0;exitX=0.582;exitY=0.985;exitDx=0;exitDy=0;exitPerimeter=0;fontStyle=0;fontSize=14;" parent="1" edge="1">
          <mxGeometry width="50" height="50" relative="1" as="geometry">
            <mxPoint x="16" y="120" as="sourcePoint" />
            <mxPoint x="992" y="576" as="targetPoint" />
            <Array as="points">
              <mxPoint x="14" y="384" />
              <mxPoint x="992" y="384" />
            </Array>
          </mxGeometry>
        </mxCell>
        <mxCell id="VI83ClhkM7oRZmtI1hbw-34" value="Toll alert System" style="ellipse;whiteSpace=wrap;html=1;fontStyle=0;fontSize=14;" parent="1" vertex="1">
          <mxGeometry x="208" y="88" width="120" height="80" as="geometry" />
        </mxCell>
        <mxCell id="VI83ClhkM7oRZmtI1hbw-35" value="Check Due date" style="endArrow=classic;html=1;rounded=0;exitX=0;exitY=0;exitDx=0;exitDy=0;entryX=0.349;entryY=0.076;entryDx=0;entryDy=0;entryPerimeter=0;fontStyle=0;fontSize=14;" parent="1" source="VI83ClhkM7oRZmtI1hbw-34" target="VI83ClhkM7oRZmtI1hbw-20" edge="1">
          <mxGeometry width="50" height="50" relative="1" as="geometry">
            <mxPoint x="256.00000000000017" y="88.00000000000014" as="sourcePoint" />
            <mxPoint x="506.16" y="-69.6" as="targetPoint" />
            <Array as="points">
              <mxPoint x="216" y="-328" />
              <mxPoint x="771" y="-328" />
            </Array>
          </mxGeometry>
        </mxCell>
        <mxCell id="VI83ClhkM7oRZmtI1hbw-36" value="" style="endArrow=classic;html=1;rounded=0;exitX=0;exitY=0.5;exitDx=0;exitDy=0;entryX=0.908;entryY=0.797;entryDx=0;entryDy=0;entryPerimeter=0;fontStyle=0;fontSize=14;" parent="1" source="VI83ClhkM7oRZmtI1hbw-34" target="VI83ClhkM7oRZmtI1hbw-25" edge="1">
          <mxGeometry width="50" height="50" relative="1" as="geometry">
            <mxPoint x="272" y="-54" as="sourcePoint" />
            <mxPoint x="72" y="120" as="targetPoint" />
            <Array as="points">
              <mxPoint x="208" y="160" />
              <mxPoint x="40" y="160" />
            </Array>
          </mxGeometry>
        </mxCell>
        <mxCell id="VI83ClhkM7oRZmtI1hbw-37" value="Issue Alerts" style="edgeLabel;html=1;align=center;verticalAlign=middle;resizable=0;points=[];fontStyle=0;fontSize=14;" parent="VI83ClhkM7oRZmtI1hbw-36" vertex="1" connectable="0">
          <mxGeometry x="-0.0186" relative="1" as="geometry">
            <mxPoint as="offset" />
          </mxGeometry>
        </mxCell>
        <mxCell id="VI83ClhkM7oRZmtI1hbw-38" value="Toll plaza person" style="rounded=0;whiteSpace=wrap;html=1;fontSize=14;" parent="1" vertex="1">
          <mxGeometry x="1216" y="80" width="208" height="112" as="geometry" />
        </mxCell>
        <mxCell id="VI83ClhkM7oRZmtI1hbw-39" value="Challan Deduction and Toll deduction" style="ellipse;whiteSpace=wrap;html=1;fontSize=14;" parent="1" vertex="1">
          <mxGeometry x="768" y="96" width="224" height="80" as="geometry" />
        </mxCell>
        <mxCell id="VI83ClhkM7oRZmtI1hbw-40" value="Check Balance" style="endArrow=classic;html=1;rounded=0;exitX=0.75;exitY=0;exitDx=0;exitDy=0;entryX=0;entryY=1;entryDx=0;entryDy=0;fontSize=14;" parent="1" source="VI83ClhkM7oRZmtI1hbw-4" target="VI83ClhkM7oRZmtI1hbw-39" edge="1">
          <mxGeometry width="50" height="50" relative="1" as="geometry">
            <mxPoint x="592" y="354" as="sourcePoint" />
            <mxPoint x="642" y="304" as="targetPoint" />
            <Array as="points">
              <mxPoint x="760" y="164" />
            </Array>
          </mxGeometry>
        </mxCell>
        <mxCell id="VI83ClhkM7oRZmtI1hbw-41" value="View Fastag balance" style="endArrow=classic;html=1;rounded=0;exitX=1;exitY=0.5;exitDx=0;exitDy=0;entryX=0;entryY=0.5;entryDx=0;entryDy=0;fontSize=14;" parent="1" source="VI83ClhkM7oRZmtI1hbw-39" target="VI83ClhkM7oRZmtI1hbw-38" edge="1">
          <mxGeometry width="50" height="50" relative="1" as="geometry">
            <mxPoint x="592" y="354" as="sourcePoint" />
            <mxPoint x="642" y="304" as="targetPoint" />
          </mxGeometry>
        </mxCell>
        <mxCell id="VI83ClhkM7oRZmtI1hbw-42" value="&lt;font&gt;View Fastag information&lt;/font&gt;" style="endArrow=classic;html=1;rounded=0;exitX=0.75;exitY=1;exitDx=0;exitDy=0;entryX=0.637;entryY=1.013;entryDx=0;entryDy=0;entryPerimeter=0;fontSize=14;" parent="1" source="VI83ClhkM7oRZmtI1hbw-4" target="VI83ClhkM7oRZmtI1hbw-25" edge="1">
          <mxGeometry width="50" height="50" relative="1" as="geometry">
            <mxPoint x="592" y="354" as="sourcePoint" />
            <mxPoint x="642" y="304" as="targetPoint" />
            <Array as="points">
              <mxPoint x="766" y="872" />
              <mxPoint x="-32" y="864" />
            </Array>
          </mxGeometry>
        </mxCell>
        <mxCell id="VI83ClhkM7oRZmtI1hbw-43" value="" style="endArrow=classic;html=1;rounded=0;exitX=0.038;exitY=0.301;exitDx=0;exitDy=0;exitPerimeter=0;entryX=1;entryY=0.25;entryDx=0;entryDy=0;fontSize=14;" parent="1" source="VI83ClhkM7oRZmtI1hbw-25" target="VI83ClhkM7oRZmtI1hbw-26" edge="1">
          <mxGeometry width="50" height="50" relative="1" as="geometry">
            <mxPoint x="304" y="354" as="sourcePoint" />
            <mxPoint x="354" y="304" as="targetPoint" />
          </mxGeometry>
        </mxCell>
        <mxCell id="VI83ClhkM7oRZmtI1hbw-44" value="View Fastag information" style="edgeLabel;html=1;align=center;verticalAlign=middle;resizable=0;points=[];fontSize=14;" parent="VI83ClhkM7oRZmtI1hbw-43" vertex="1" connectable="0">
          <mxGeometry x="0.0126" y="-1" relative="1" as="geometry">
            <mxPoint x="1" as="offset" />
          </mxGeometry>
        </mxCell>
        <mxCell id="VI83ClhkM7oRZmtI1hbw-45" value="View Transaction History" style="endArrow=classic;html=1;rounded=0;exitX=0;exitY=0;exitDx=0;exitDy=0;entryX=0.5;entryY=0;entryDx=0;entryDy=0;fontSize=14;" parent="1" source="VI83ClhkM7oRZmtI1hbw-25" target="VI83ClhkM7oRZmtI1hbw-26" edge="1">
          <mxGeometry width="50" height="50" relative="1" as="geometry">
            <mxPoint x="304" y="354" as="sourcePoint" />
            <mxPoint x="354" y="304" as="targetPoint" />
            <Array as="points">
              <mxPoint x="-161" y="16" />
              <mxPoint x="-520" y="16" />
            </Array>
          </mxGeometry>
        </mxCell>
        <mxCell id="VI83ClhkM7oRZmtI1hbw-46" value="View Transaction history of individual" style="endArrow=classic;html=1;rounded=0;exitX=0.5;exitY=1;exitDx=0;exitDy=0;entryX=0.307;entryY=1.013;entryDx=0;entryDy=0;entryPerimeter=0;fontSize=14;" parent="1" source="VI83ClhkM7oRZmtI1hbw-32" target="VI83ClhkM7oRZmtI1hbw-25" edge="1">
          <mxGeometry width="50" height="50" relative="1" as="geometry">
            <mxPoint x="304" y="354" as="sourcePoint" />
            <mxPoint x="354" y="304" as="targetPoint" />
            <Array as="points">
              <mxPoint x="1000" y="928" />
              <mxPoint x="-119" y="928" />
            </Array>
          </mxGeometry>
        </mxCell>
        <mxCell id="VI83ClhkM7oRZmtI1hbw-47" value="" style="endArrow=classic;html=1;rounded=0;exitX=1;exitY=1;exitDx=0;exitDy=0;entryX=0.23;entryY=0.154;entryDx=0;entryDy=0;entryPerimeter=0;fontSize=14;" parent="1" edge="1">
          <mxGeometry width="50" height="50" relative="1" as="geometry">
            <mxPoint x="822.9999999999995" y="-220" as="sourcePoint" />
            <mxPoint x="818.52" y="108.32000000000016" as="targetPoint" />
          </mxGeometry>
        </mxCell>
        <mxCell id="VI83ClhkM7oRZmtI1hbw-48" value="View&amp;nbsp;&lt;div&gt;Challans&lt;/div&gt;" style="edgeLabel;html=1;align=center;verticalAlign=middle;resizable=0;points=[];fontSize=14;" parent="VI83ClhkM7oRZmtI1hbw-47" vertex="1" connectable="0">
          <mxGeometry x="-0.0414" y="-3" relative="1" as="geometry">
            <mxPoint x="4" as="offset" />
          </mxGeometry>
        </mxCell>
        <mxCell id="VI83ClhkM7oRZmtI1hbw-49" value="View Challans" style="endArrow=classic;html=1;rounded=0;exitX=1;exitY=0;exitDx=0;exitDy=0;entryX=0;entryY=0.25;entryDx=0;entryDy=0;fontSize=14;" parent="1" target="VI83ClhkM7oRZmtI1hbw-38" edge="1">
          <mxGeometry width="50" height="50" relative="1" as="geometry">
            <mxPoint x="958.7572107681044" y="110.5598961115179" as="sourcePoint" />
            <mxPoint x="1216" y="102.5" as="targetPoint" />
          </mxGeometry>
        </mxCell>
        <mxCell id="VI83ClhkM7oRZmtI1hbw-54" value="Settle Challans with due date" style="endArrow=classic;html=1;rounded=0;exitX=0;exitY=0.75;exitDx=0;exitDy=0;entryX=0.9;entryY=0.831;entryDx=0;entryDy=0;entryPerimeter=0;fontSize=14;" parent="1" source="VI83ClhkM7oRZmtI1hbw-38" target="VI83ClhkM7oRZmtI1hbw-39" edge="1">
          <mxGeometry width="50" height="50" relative="1" as="geometry">
            <mxPoint x="632" y="18" as="sourcePoint" />
            <mxPoint x="682" y="-32" as="targetPoint" />
          </mxGeometry>
        </mxCell>
        <mxCell id="VI83ClhkM7oRZmtI1hbw-55" value="Deduct&amp;nbsp;&lt;div&gt;Balance&lt;/div&gt;" style="endArrow=classic;html=1;rounded=0;exitX=0.411;exitY=0.985;exitDx=0;exitDy=0;exitPerimeter=0;fontSize=14;" parent="1" source="VI83ClhkM7oRZmtI1hbw-39" edge="1">
          <mxGeometry width="50" height="50" relative="1" as="geometry">
            <mxPoint x="632" y="354" as="sourcePoint" />
            <mxPoint x="776" y="584" as="targetPoint" />
            <Array as="points">
              <mxPoint x="860" y="552" />
              <mxPoint x="776" y="552" />
            </Array>
          </mxGeometry>
        </mxCell>
        <mxCell id="VI83ClhkM7oRZmtI1hbw-56" value="" style="endArrow=classic;html=1;rounded=0;exitX=0.681;exitY=0.969;exitDx=0;exitDy=0;exitPerimeter=0;entryX=0.75;entryY=0;entryDx=0;entryDy=0;fontSize=14;" parent="1" edge="1">
          <mxGeometry width="50" height="50" relative="1" as="geometry">
            <mxPoint x="929.5440000000003" y="173.51999999999998" as="sourcePoint" />
            <mxPoint x="1043.0000000000005" y="576" as="targetPoint" />
            <Array as="points">
              <mxPoint x="929" y="544" />
              <mxPoint x="1041" y="544" />
            </Array>
          </mxGeometry>
        </mxCell>
        <mxCell id="VI83ClhkM7oRZmtI1hbw-57" value="Add Transaction with&lt;div&gt;forced challan payment&lt;/div&gt;" style="edgeLabel;html=1;align=center;verticalAlign=middle;resizable=0;points=[];fontSize=14;" parent="VI83ClhkM7oRZmtI1hbw-56" vertex="1" connectable="0">
          <mxGeometry x="-0.2883" y="-6" relative="1" as="geometry">
            <mxPoint as="offset" />
          </mxGeometry>
        </mxCell>
        <mxCell id="VI83ClhkM7oRZmtI1hbw-58" value="Blacklist fastag" style="endArrow=classic;html=1;rounded=0;exitX=0.25;exitY=0;exitDx=0;exitDy=0;entryX=0.384;entryY=-0.034;entryDx=0;entryDy=0;entryPerimeter=0;fontSize=14;" parent="1" source="VI83ClhkM7oRZmtI1hbw-38" target="VI83ClhkM7oRZmtI1hbw-39" edge="1">
          <mxGeometry width="50" height="50" relative="1" as="geometry">
            <mxPoint x="768" y="26" as="sourcePoint" />
            <mxPoint x="818" y="-24" as="targetPoint" />
            <Array as="points">
              <mxPoint x="1264" y="64" />
              <mxPoint x="854" y="64" />
            </Array>
          </mxGeometry>
        </mxCell>
        <mxCell id="VI83ClhkM7oRZmtI1hbw-59" value="Change&amp;nbsp;&lt;div&gt;Fastag&amp;nbsp;&lt;/div&gt;&lt;div&gt;Status to&amp;nbsp;&lt;/div&gt;&lt;div&gt;Blacklist&lt;/div&gt;" style="endArrow=classic;html=1;rounded=0;exitX=0;exitY=0.5;exitDx=0;exitDy=0;entryX=0.1;entryY=-0.013;entryDx=0;entryDy=0;entryPerimeter=0;fontSize=14;" parent="1" source="VI83ClhkM7oRZmtI1hbw-39" target="VI83ClhkM7oRZmtI1hbw-4" edge="1">
          <mxGeometry width="50" height="50" relative="1" as="geometry">
            <mxPoint x="776" y="306" as="sourcePoint" />
            <mxPoint x="826" y="256" as="targetPoint" />
            <Array as="points">
              <mxPoint x="680" y="136" />
            </Array>
          </mxGeometry>
        </mxCell>
        <mxCell id="nQDP0xZw3z_pWCkfkmBP-1" value="External Entity" style="rounded=0;whiteSpace=wrap;html=1;" parent="1" vertex="1">
          <mxGeometry x="1128" y="-808" width="120" height="60" as="geometry" />
        </mxCell>
        <mxCell id="nQDP0xZw3z_pWCkfkmBP-2" value="Process" style="ellipse;whiteSpace=wrap;html=1;" parent="1" vertex="1">
          <mxGeometry x="1288" y="-818" width="120" height="80" as="geometry" />
        </mxCell>
        <mxCell id="nQDP0xZw3z_pWCkfkmBP-3" value="Data flow" style="endArrow=classic;html=1;rounded=0;" parent="1" edge="1">
          <mxGeometry width="50" height="50" relative="1" as="geometry">
            <mxPoint x="1128" y="-704" as="sourcePoint" />
            <mxPoint x="1256" y="-704" as="targetPoint" />
          </mxGeometry>
        </mxCell>
        <mxCell id="nQDP0xZw3z_pWCkfkmBP-4" value="Data Store" style="shape=partialRectangle;whiteSpace=wrap;html=1;left=0;right=0;fillColor=none;" parent="1" vertex="1">
          <mxGeometry x="1304" y="-720" width="120" height="60" as="geometry" />
        </mxCell>
      </root>
    </mxGraphModel>
  </diagram>
</mxfile>
